<svg version="1.1" id="Layer_1" xmlns="http://www.w3.org/2000/svg" xmlns:xlink="http://www.w3.org/1999/xlink" x="0px" y="0px"
	 width="100%" viewBox="0 0 1024 1024" enable-background="new 0 0 1024 1024" xml:space="preserve">
<path fill="#FEFFFF" opacity="1.000000" stroke="none" 
	d="
M1.000000,342.000000 
	C1.000000,228.000015 1.000000,114.500031 1.000000,1.000031 
	C342.333282,1.000020 683.666565,1.000020 1025.000000,1.000010 
	C1025.000000,342.333252 1025.000000,683.666504 1025.000000,1024.999756 
	C683.666809,1024.999878 342.333618,1024.999878 1.000204,1025.000000 
	C1.000000,797.500000 1.000000,570.000000 1.000000,342.000000 
M934.141357,89.152023 
	C933.922668,88.872566 933.635925,88.729012 932.995911,88.981964 
	C932.995911,88.981964 933.288452,88.730698 933.066711,88.102768 
	C929.057800,85.052437 925.048889,82.002098 921.000000,78.999390 
	C921.000000,78.999390 921.042297,78.955025 920.736633,78.354591 
	C902.911255,66.381607 882.986511,61.161575 861.796143,61.151363 
	C662.393494,61.055290 462.990814,61.085857 263.588135,61.146969 
	C227.277832,61.158096 190.959702,61.088303 154.661255,61.836308 
	C139.970398,62.139038 125.824554,66.215942 113.027946,73.992584 
	C113.027946,73.992584 113.040154,74.060249 112.328850,74.110611 
	C109.067543,76.314453 105.806236,78.518303 102.245903,80.798073 
	C102.245903,80.798073 102.029404,81.017876 101.344345,81.118332 
	C94.433243,88.273071 87.522141,95.427818 80.595581,102.665070 
	C80.595581,102.665070 80.513817,102.684036 79.996292,102.946632 
	C79.654785,103.621620 79.313271,104.296600 79.000175,104.997665 
	C79.000175,104.997665 78.969261,104.978058 78.416222,105.270737 
	C77.922333,106.163658 77.428444,107.056587 76.997375,108.001747 
	C76.997375,108.001747 76.940720,107.944336 76.366966,108.296898 
	C65.721008,124.871811 60.892303,143.156845 60.888481,162.704666 
	C60.843044,395.026978 60.882553,627.349304 60.816925,859.671631 
	C60.809765,885.025635 67.818626,907.995911 83.565514,927.885620 
	C91.535866,937.952942 101.036201,946.597046 113.000000,952.000000 
	C113.000000,952.000000 113.017838,951.979370 113.467148,952.481567 
	C115.315643,953.316528 117.164131,954.151489 119.000305,955.000000 
	C119.000305,955.000000 119.010033,954.985962 119.538040,955.440857 
	C133.121048,961.872620 147.437302,965.149170 162.455688,965.149963 
	C395.908386,965.162781 629.361084,965.165039 862.813782,965.118164 
	C876.939453,965.115356 890.656250,962.429443 903.608093,956.759277 
	C917.435791,950.705627 930.078613,942.848633 939.485291,930.465210 
	C939.485291,930.465210 939.579773,930.379211 940.122559,930.081116 
	C941.227966,928.572021 942.333374,927.062927 943.513062,925.439819 
	C943.513062,925.439819 943.609985,925.344421 944.149475,925.035217 
	C945.573669,922.839355 946.997864,920.643433 948.434021,918.357544 
	C948.434021,918.357544 948.519409,918.326599 949.030151,917.947449 
	C951.042480,913.976868 953.054810,910.006226 954.997375,906.009460 
	C954.997375,906.009460 955.057190,906.054688 955.637390,905.691528 
	C961.954773,892.241333 965.114746,878.040100 965.117432,863.226318 
	C965.159546,630.681396 965.202881,398.136414 964.971619,165.591705 
	C964.960815,154.760895 963.425232,143.669006 960.761963,133.164673 
	C956.715820,117.205902 948.905640,102.933411 936.340149,91.676758 
	C936.340149,91.676758 936.319702,91.606941 936.161194,91.145325 
	C935.955505,90.859146 935.676514,90.710518 935.067749,90.893700 
	C935.067749,90.893700 935.297424,90.668396 935.174011,90.193649 
	C934.995728,89.885544 934.729431,89.714073 934.278870,89.710281 
	C934.278870,89.710281 934.313293,89.615120 934.141357,89.152023 
z"/>
<path fill="#01C9B9" opacity="1.000000" stroke="none" 
	d="
M102.029404,81.017868 
	C102.029404,81.017876 102.245903,80.798073 102.777863,80.812164 
	C106.553261,78.570915 109.796707,76.315582 113.040154,74.060249 
	C113.040154,74.060249 113.027946,73.992584 113.444267,74.030449 
	C115.162483,73.858353 116.647430,73.983604 117.738602,73.387749 
	C132.272049,65.451462 148.063766,62.990791 164.296326,62.986629 
	C392.287170,62.928165 620.278015,62.932819 848.268860,62.981155 
	C856.394714,62.982880 864.518066,63.773884 872.646729,63.880840 
	C888.779114,64.093109 903.046509,70.177071 916.983337,77.463982 
	C918.249939,78.126221 919.685303,78.465668 921.042297,78.955017 
	C921.042297,78.955025 921.000000,78.999390 921.050781,79.316216 
	C925.163818,82.665596 929.226135,85.698158 933.288452,88.730705 
	C933.288452,88.730698 932.995911,88.981964 933.170654,89.127335 
	C933.667969,89.386841 933.990662,89.500977 934.313293,89.615112 
	C934.313293,89.615120 934.278870,89.710281 934.320251,89.974113 
	C934.673584,90.381424 934.985474,90.524902 935.297424,90.668388 
	C935.297424,90.668396 935.067749,90.893700 935.210205,91.076111 
	C935.674988,91.374657 935.997375,91.490799 936.319702,91.606934 
	C936.319702,91.606941 936.340149,91.676758 936.285156,92.032097 
	C936.791626,93.364227 937.190918,94.491684 937.938232,95.295670 
	C955.372498,114.052223 963.797241,136.850327 963.834717,161.821838 
	C964.185059,395.383209 964.077881,628.945312 963.895264,862.507080 
	C963.888855,870.679688 962.054260,878.919250 960.437012,887.000549 
	C959.145813,893.452454 956.886719,899.710571 955.057251,906.054688 
	C955.057190,906.054688 954.997375,906.009460 954.716675,906.164795 
	C952.463806,910.322266 950.491577,914.324402 948.519409,918.326599 
	C948.519409,918.326599 948.434021,918.357544 948.071899,918.380615 
	C946.343201,920.717224 944.976562,923.030823 943.609985,925.344421 
	C943.609985,925.344421 943.513062,925.439819 943.126221,925.429810 
	C941.686218,927.072876 940.632996,928.726074 939.579834,930.379272 
	C939.579773,930.379211 939.485291,930.465210 939.111328,930.441162 
	C937.484192,931.485596 936.140198,932.465088 934.991211,933.635925 
	C914.925232,954.081848 889.861206,963.791260 861.936218,963.835022 
	C628.799622,964.200439 395.662170,964.079712 162.525131,963.912659 
	C154.840225,963.907166 147.083801,962.199158 139.494202,960.636475 
	C132.571793,959.211182 125.830917,956.904297 119.010040,954.985962 
	C119.010033,954.985962 119.000305,955.000000 118.930969,954.643738 
	C116.913704,953.518066 114.965775,952.748718 113.017838,951.979370 
	C113.017838,951.979370 113.000000,952.000000 112.951317,951.652222 
	C107.476593,947.269165 101.719681,943.606689 96.680962,939.134949 
	C72.996620,918.115784 62.146427,890.932678 62.108322,859.959717 
	C61.828545,632.555298 61.948139,405.150269 61.999687,177.745468 
	C62.001453,169.954773 62.480446,162.155746 62.973984,154.375641 
	C63.667610,143.441284 66.081032,132.880020 70.484482,122.808655 
	C72.648544,117.859123 74.789375,112.899429 76.940720,107.944336 
	C76.940720,107.944336 76.997375,108.001747 77.311897,107.927765 
	C78.074028,106.895203 78.521645,105.936630 78.969261,104.978058 
	C78.969261,104.978058 79.000175,104.997665 79.329926,104.942719 
	C79.944382,104.153198 80.229095,103.418617 80.513817,102.684036 
	C80.513817,102.684036 80.595581,102.665070 80.957329,102.643082 
	C86.247444,97.516418 91.182945,92.418617 96.100693,87.303741 
	C98.096832,85.227585 100.054321,83.114273 102.029404,81.017868 
M533.547607,275.918335 
	C539.581421,277.050385 545.694519,277.867889 551.636414,279.364838 
	C593.955750,290.026550 630.986328,310.173126 662.474426,340.619354 
	C703.549927,380.335754 726.984924,428.657684 733.919556,485.120880 
	C737.617188,515.228149 736.286133,545.274414 730.794312,575.061401 
	C720.183167,632.614868 695.048279,683.313721 656.886292,727.443848 
	C629.146912,759.521240 595.953125,784.880859 558.032104,803.940735 
	C523.926880,821.082825 487.993225,831.589661 449.689758,833.159790 
	C439.209442,833.589417 428.703583,833.446899 418.232330,833.999756 
	C416.249176,834.104492 412.855103,836.168152 412.782654,837.475952 
	C412.653778,839.800415 414.287781,842.432373 415.751282,844.542480 
	C416.432373,845.524536 418.412567,845.704956 419.851837,846.047180 
	C451.127563,853.483521 482.753632,856.260925 514.899231,854.210022 
	C539.209778,852.658997 563.080688,848.944763 586.508728,842.387878 
	C652.347900,823.961243 707.151794,788.158569 751.206177,736.162231 
	C797.729065,681.252319 823.276855,617.371155 829.814453,545.853027 
	C832.618591,515.178223 830.582764,484.653351 824.705627,454.461060 
	C809.084778,374.213165 770.004761,307.527313 706.774414,255.761932 
	C650.088318,209.354156 583.992554,186.688583 511.200378,183.184952 
	C482.820038,181.818939 454.637482,185.007706 427.004395,191.372131 
	C354.564880,208.056290 294.152283,244.400024 247.668640,302.946960 
	C202.965668,359.251099 180.585876,423.426361 180.092957,495.260071 
	C179.904816,522.678284 183.224014,549.649536 190.953400,576.014771 
	C208.368118,635.416931 242.782333,682.067139 296.393555,713.388062 
	C346.794434,742.833496 401.239685,752.067749 458.820038,742.020020 
	C513.141663,732.540894 558.711121,707.198242 594.067627,664.887146 
	C631.380127,620.235352 649.085754,568.770386 643.997803,510.193848 
	C642.200195,489.499023 637.413086,469.539398 628.251831,450.853760 
	C600.252380,393.745026 538.662598,358.292053 471.469757,368.970367 
	C425.843658,376.221283 392.232697,400.657684 372.125885,442.137238 
	C357.730774,471.833832 355.526489,502.804199 369.127563,533.745728 
	C379.740997,557.890564 403.100006,572.962158 428.378937,571.834656 
	C441.536835,571.247803 453.342346,567.300598 459.794067,554.308289 
	C463.511627,546.821899 461.403442,541.662292 453.628357,538.464600 
	C449.966339,536.958496 446.130493,535.609558 442.867645,533.444519 
	C428.579651,523.963867 421.502197,503.561157 425.429993,485.127197 
	C430.707367,460.359344 454.890228,439.846344 483.300293,438.151703 
	C513.797363,436.332581 536.604187,450.011627 551.826172,476.023346 
	C563.317139,495.659302 565.239380,517.235352 561.593811,539.301575 
	C558.488037,558.100220 553.489746,576.610229 542.101074,592.134277 
	C504.993774,642.715515 440.219452,668.378296 377.860443,650.924561 
	C329.504852,637.390320 294.398529,607.738464 274.830139,561.211914 
	C258.058441,521.334839 257.939026,480.064148 269.650665,439.041718 
	C289.416595,369.807617 334.907379,322.649597 399.456329,293.118622 
	C429.937256,279.173645 462.493317,273.434845 495.889587,273.210480 
	C508.142578,273.128174 520.408081,274.903320 533.547607,275.918335 
z"/>
<path fill="#3FCAB8" opacity="1.000000" stroke="none" 
	d="
M920.889465,78.654800 
	C919.685303,78.465668 918.249939,78.126221 916.983337,77.463982 
	C903.046509,70.177071 888.779114,64.093109 872.646729,63.880840 
	C864.518066,63.773884 856.394714,62.982880 848.268860,62.981155 
	C620.278015,62.932819 392.287170,62.928165 164.296326,62.986629 
	C148.063766,62.990791 132.272049,65.451462 117.738602,73.387749 
	C116.647430,73.983604 115.162483,73.858353 113.462265,74.060226 
	C125.824554,66.215942 139.970398,62.139038 154.661255,61.836308 
	C190.959702,61.088303 227.277832,61.158096 263.588135,61.146969 
	C462.990814,61.085857 662.393494,61.055290 861.796143,61.151363 
	C882.986511,61.161575 902.911255,66.381607 920.889465,78.654800 
z"/>
<path fill="#3FCAB8" opacity="1.000000" stroke="none" 
	d="
M76.653839,108.120621 
	C74.789375,112.899429 72.648544,117.859123 70.484482,122.808655 
	C66.081032,132.880020 63.667610,143.441284 62.973984,154.375641 
	C62.480446,162.155746 62.001453,169.954773 61.999687,177.745468 
	C61.948139,405.150269 61.828545,632.555298 62.108322,859.959717 
	C62.146427,890.932678 72.996620,918.115784 96.680962,939.134949 
	C101.719681,943.606689 107.476593,947.269165 112.960434,951.641846 
	C101.036201,946.597046 91.535866,937.952942 83.565514,927.885620 
	C67.818626,907.995911 60.809765,885.025635 60.816925,859.671631 
	C60.882553,627.349304 60.843044,395.026978 60.888481,162.704666 
	C60.892303,143.156845 65.721008,124.871811 76.653839,108.120621 
z"/>
<path fill="#3FCAB8" opacity="1.000000" stroke="none" 
	d="
M119.274040,955.213379 
	C125.830917,956.904297 132.571793,959.211182 139.494202,960.636475 
	C147.083801,962.199158 154.840225,963.907166 162.525131,963.912659 
	C395.662170,964.079712 628.799622,964.200439 861.936218,963.835022 
	C889.861206,963.791260 914.925232,954.081848 934.991211,933.635925 
	C936.140198,932.465088 937.484192,931.485596 939.081848,930.497803 
	C930.078613,942.848633 917.435791,950.705627 903.608093,956.759277 
	C890.656250,962.429443 876.939453,965.115356 862.813782,965.118164 
	C629.361084,965.165039 395.908386,965.162781 162.455688,965.149963 
	C147.437302,965.149170 133.121048,961.872620 119.274040,955.213379 
z"/>
<path fill="#3FCAB8" opacity="1.000000" stroke="none" 
	d="
M955.347290,905.873108 
	C956.886719,899.710571 959.145813,893.452454 960.437012,887.000549 
	C962.054260,878.919250 963.888855,870.679688 963.895264,862.507080 
	C964.077881,628.945312 964.185059,395.383209 963.834717,161.821838 
	C963.797241,136.850327 955.372498,114.052223 937.938232,95.295670 
	C937.190918,94.491684 936.791626,93.364227 936.321533,92.030289 
	C948.905640,102.933411 956.715820,117.205902 960.761963,133.164673 
	C963.425232,143.669006 964.960815,154.760895 964.971619,165.591705 
	C965.202881,398.136414 965.159546,630.681396 965.117432,863.226318 
	C965.114746,878.040100 961.954773,892.241333 955.347290,905.873108 
z"/>
<path fill="#3FCAB8" opacity="1.000000" stroke="none" 
	d="
M101.686874,81.068100 
	C100.054321,83.114273 98.096832,85.227585 96.100693,87.303741 
	C91.182945,92.418617 86.247444,97.516418 80.965057,102.601822 
	C87.522141,95.427818 94.433243,88.273071 101.686874,81.068100 
z"/>
<path fill="#3FCAB8" opacity="1.000000" stroke="none" 
	d="
M933.177612,88.416740 
	C929.226135,85.698158 925.163818,82.665596 921.070740,79.292404 
	C925.048889,82.002098 929.057800,85.052437 933.177612,88.416740 
z"/>
<path fill="#3FCAB8" opacity="1.000000" stroke="none" 
	d="
M948.774780,918.137024 
	C950.491577,914.324402 952.463806,910.322266 954.751587,906.177856 
	C953.054810,910.006226 951.042480,913.976868 948.774780,918.137024 
z"/>
<path fill="#3FCAB8" opacity="1.000000" stroke="none" 
	d="
M112.684502,74.085434 
	C109.796707,76.315582 106.553261,78.570915 102.927368,80.774200 
	C105.806236,78.518303 109.067543,76.314453 112.684502,74.085434 
z"/>
<path fill="#3FCAB8" opacity="1.000000" stroke="none" 
	d="
M943.879761,925.189819 
	C944.976562,923.030823 946.343201,920.717224 948.065918,918.425598 
	C946.997864,920.643433 945.573669,922.839355 943.879761,925.189819 
z"/>
<path fill="#3FCAB8" opacity="1.000000" stroke="none" 
	d="
M113.242493,952.230469 
	C114.965775,952.748718 116.913704,953.518066 118.937126,954.636963 
	C117.164131,954.151489 115.315643,953.316528 113.242493,952.230469 
z"/>
<path fill="#3FCAB8" opacity="1.000000" stroke="none" 
	d="
M939.851196,930.230225 
	C940.632996,928.726074 941.686218,927.072876 943.089111,925.486816 
	C942.333374,927.062927 941.227966,928.572021 939.851196,930.230225 
z"/>
<path fill="#3FCAB8" opacity="1.000000" stroke="none" 
	d="
M78.692741,105.124397 
	C78.521645,105.936630 78.074028,106.895203 77.280487,107.901642 
	C77.428444,107.056587 77.922333,106.163658 78.692741,105.124397 
z"/>
<path fill="#3FCAB8" opacity="1.000000" stroke="none" 
	d="
M80.255051,102.815338 
	C80.229095,103.418617 79.944382,104.153198 79.315720,104.929688 
	C79.313271,104.296600 79.654785,103.621620 80.255051,102.815338 
z"/>
<path fill="#3FCAB8" opacity="1.000000" stroke="none" 
	d="
M936.240479,91.376129 
	C935.997375,91.490799 935.674988,91.374657 935.338440,90.978981 
	C935.676514,90.710518 935.955505,90.859146 936.240479,91.376129 
z"/>
<path fill="#3FCAB8" opacity="1.000000" stroke="none" 
	d="
M935.235718,90.431015 
	C934.985474,90.524902 934.673584,90.381424 934.368408,89.958595 
	C934.729431,89.714073 934.995728,89.885544 935.235718,90.431015 
z"/>
<path fill="#3FCAB8" opacity="1.000000" stroke="none" 
	d="
M934.227295,89.383568 
	C933.990662,89.500977 933.667969,89.386841 933.313232,88.997032 
	C933.635925,88.729012 933.922668,88.872566 934.227295,89.383568 
z"/>
<path fill="#FDFFFF" opacity="1.000000" stroke="none" 
	d="
M533.107788,275.874756 
	C520.408081,274.903320 508.142578,273.128174 495.889587,273.210480 
	C462.493317,273.434845 429.937256,279.173645 399.456329,293.118622 
	C334.907379,322.649597 289.416595,369.807617 269.650665,439.041718 
	C257.939026,480.064148 258.058441,521.334839 274.830139,561.211914 
	C294.398529,607.738464 329.504852,637.390320 377.860443,650.924561 
	C440.219452,668.378296 504.993774,642.715515 542.101074,592.134277 
	C553.489746,576.610229 558.488037,558.100220 561.593811,539.301575 
	C565.239380,517.235352 563.317139,495.659302 551.826172,476.023346 
	C536.604187,450.011627 513.797363,436.332581 483.300293,438.151703 
	C454.890228,439.846344 430.707367,460.359344 425.429993,485.127197 
	C421.502197,503.561157 428.579651,523.963867 442.867645,533.444519 
	C446.130493,535.609558 449.966339,536.958496 453.628357,538.464600 
	C461.403442,541.662292 463.511627,546.821899 459.794067,554.308289 
	C453.342346,567.300598 441.536835,571.247803 428.378937,571.834656 
	C403.100006,572.962158 379.740997,557.890564 369.127563,533.745728 
	C355.526489,502.804199 357.730774,471.833832 372.125885,442.137238 
	C392.232697,400.657684 425.843658,376.221283 471.469757,368.970367 
	C538.662598,358.292053 600.252380,393.745026 628.251831,450.853760 
	C637.413086,469.539398 642.200195,489.499023 643.997803,510.193848 
	C649.085754,568.770386 631.380127,620.235352 594.067627,664.887146 
	C558.711121,707.198242 513.141663,732.540894 458.820038,742.020020 
	C401.239685,752.067749 346.794434,742.833496 296.393555,713.388062 
	C242.782333,682.067139 208.368118,635.416931 190.953400,576.014771 
	C183.224014,549.649536 179.904816,522.678284 180.092957,495.260071 
	C180.585876,423.426361 202.965668,359.251099 247.668640,302.946960 
	C294.152283,244.400024 354.564880,208.056290 427.004395,191.372131 
	C454.637482,185.007706 482.820038,181.818939 511.200378,183.184952 
	C583.992554,186.688583 650.088318,209.354156 706.774414,255.761932 
	C770.004761,307.527313 809.084778,374.213165 824.705627,454.461060 
	C830.582764,484.653351 832.618591,515.178223 829.814453,545.853027 
	C823.276855,617.371155 797.729065,681.252319 751.206177,736.162231 
	C707.151794,788.158569 652.347900,823.961243 586.508728,842.387878 
	C563.080688,848.944763 539.209778,852.658997 514.899231,854.210022 
	C482.753632,856.260925 451.127563,853.483521 419.851837,846.047180 
	C418.412567,845.704956 416.432373,845.524536 415.751282,844.542480 
	C414.287781,842.432373 412.653778,839.800415 412.782654,837.475952 
	C412.855103,836.168152 416.249176,834.104492 418.232330,833.999756 
	C428.703583,833.446899 439.209442,833.589417 449.689758,833.159790 
	C487.993225,831.589661 523.926880,821.082825 558.032104,803.940735 
	C595.953125,784.880859 629.146912,759.521240 656.886292,727.443848 
	C695.048279,683.313721 720.183167,632.614868 730.794312,575.061401 
	C736.286133,545.274414 737.617188,515.228149 733.919556,485.120880 
	C726.984924,428.657684 703.549927,380.335754 662.474426,340.619354 
	C630.986328,310.173126 593.955750,290.026550 551.636414,279.364838 
	C545.694519,277.867889 539.581421,277.050385 533.107788,275.874756 
z"/>
</svg>